<?xml version="1.0" encoding="utf-8"?>
<!-- Generator: Adobe Illustrator 16.0.0, SVG Export Plug-In . SVG Version: 6.00 Build 0)  -->
<!DOCTYPE svg PUBLIC "-//W3C//DTD SVG 1.1//EN" "http://www.w3.org/Graphics/SVG/1.1/DTD/svg11.dtd">
<svg version="1.1" id="Capa_1" xmlns="http://www.w3.org/2000/svg" xmlns:xlink="http://www.w3.org/1999/xlink" x="0px" y="0px"
	 width="1280px" height="800px" viewBox="0 0 1280 800" enable-background="new 0 0 1280 800" xml:space="preserve">
<g>
	<path fill="#FFFFFF" d="M1021.803,522.171c-6.72-6.251-14.971-10.017-23.371-13.328c-8.501-3.35-17.221-6.134-25.754-9.408
		c-2.038-0.778-4.091-2.197-5.473-3.866c-3.387-4.091-7.322-6.987-12.538-8.315c-9.302-2.367-18.038-6.874-27.878-7.21
		c-4.629-0.155-9.264-0.4-13.872-0.821c-1.296-0.118-2.757-0.726-3.728-1.584c-3.109-2.736-5.829-5.958-9.109-8.448
		c-1.621-1.232-4.448-2.139-6.182-1.563c-1.413,0.475-2.395,3.279-2.891,5.221c-0.592,2.331-0.518,4.843-0.646,7.275
		c-0.224,4.384-1.093,5.626-5.354,5.989c-6.197,0.533-12.475,0.512-17.301,5.439c-0.357,0.368-1.633,0.08-2.357-0.208
		c-2.491-0.981-4.88-2.25-7.408-3.109c-1.397-0.475-3.248-0.917-4.459-0.389c-5.253,2.304-10.267,0.666-14.261-1.989
		c-19.36-12.875-41.525-17.696-63.515-23.174c-2.821-0.704-5.536-1.846-8.277-2.837c-13.04-4.721-26.011-9.648-39.137-14.118
		c-8.282-2.821-16.746-2.853-25.056,0.433c-1.69,0.666-3.573,0.875-5.248,1.573c-7.792,3.259-15.846,3.099-23.675,0.896
		c-14.043-3.951-28.352-7.466-41.771-13.034c-31.227-12.966-60.688-29.525-89.125-47.755c-7.616-4.885-13.739-12.037-20.955-17.627
		c-9.909-7.68-20.117-14.986-30.357-22.224c-18.117-12.8-37.686-22.811-58.373-30.891c-7.136-2.789-13.259-8.106-19.963-12.069
		c-8.39-4.965-17.104-9.408-25.296-14.667c-8.48-5.445-16.805-11.227-24.65-17.542c-13.019-10.475-25.718-21.36-38.336-32.314
		c-12.176-10.565-21.445-23.6-30.373-36.896c-7.056-10.512-12.592-21.888-16.182-33.877c-2.491-8.31-3.851-17.168-1.397-26.219
		c8.938-33.019,47.589-71.413,84.133-63.547c0.01,0,0.016,0.005,0.026,0.005c2.565,0.555,5.12,1.189,7.611,2.032
		c1.019,0.347,2.042,0.693,3.045,1.083c0.069,0.027,0.133,0.053,0.192,0.075c3.856,1.792,7.595,3.856,11.072,6.304
		c0.448,0.309,0.891,0.629,1.328,0.949c0.715,0.586,1.424,1.179,2.107,1.792c1.6,1.44,3.168,2.917,4.624,4.496
		c0.73,0.789,1.456,1.579,2.149,2.4c0.293,0.352,0.97,1.232,1.28,1.626c0.859,1.206,1.685,2.438,2.454,3.707
		c1.285,2.144,2.507,4.331,3.541,6.608c0,0.011,0.005,0.021,0.011,0.032c0.384,1.029,0.768,2.064,1.094,3.115
		c0.655,2.123,1.258,4.272,1.68,6.454c0.111,0.56,0.219,1.12,0.32,1.68c0.063,0.565,0.144,1.296,0.17,1.648
		c0.176,2.592,0.267,5.189,0.134,7.787c-0.059,1.109-0.112,2.224-0.229,3.333c-0.011,0.123-0.021,0.229-0.032,0.331
		c-0.726,4.118-1.755,8.197-3.274,12.102c-0.24,0.522-0.485,1.045-0.741,1.563c-0.502,0.987-1.003,1.974-1.558,2.928
		c-0.944,1.616-1.931,3.21-3.008,4.741c-0.293,0.378-0.608,0.773-0.784,0.971c-0.72,0.816-1.44,1.632-2.208,2.405
		c-1.12,1.125-2.267,2.224-3.467,3.264c-0.597,0.437-1.861,1.392-2.298,1.68c-0.901,0.587-1.808,1.173-2.742,1.707
		c-1.349,0.773-2.714,1.515-4.112,2.192c-0.224,0.021-3.861,1.461-4.757,1.723c-2.064,0.603-4.149,1.152-6.267,1.525
		c-0.288,0.053-0.576,0.096-0.864,0.144c-0.026,0.005-0.048,0.005-0.069,0.005c-1.066,0.091-2.139,0.176-3.21,0.208
		c-2.139,0.054-4.283,0.054-6.416-0.139c-0.267-0.026-0.688-0.085-1.099-0.144c-0.64-0.118-1.28-0.24-1.92-0.395
		c-2.096-0.496-4.144-1.099-6.171-1.818c-8.475-2.998-18.016,3.317-20.272,11.509c-2.512,9.131,3.051,17.28,11.509,20.272
		c21.211,7.504,47.702,3.488,65.654-10.192c8.954-6.827,16.837-14.806,22.011-24.971c5.253-10.32,8.352-21.157,9.141-32.726
		c1.483-21.669-6.485-42.912-20.906-58.992c-14.576-16.256-34.683-25.899-56.219-28.357c-37.851-4.331-65.056,14.309-86.069,43.669
		c-9.995,13.962-17.189,29.024-20.619,46.24c-2.699,13.536-0.085,26.075,3.429,38.427c8.208,28.837,24.501,53.349,44.571,75.184
		c9.28,10.101,20.192,18.741,30.646,27.723c11.184,9.605,22.389,19.243,34.176,28.075c7.867,5.893,16.773,10.389,25.211,15.525
		c1.232,0.752,2.432,1.568,3.818,2.464c-0.917,1.158-1.61,2.155-2.421,3.046c-8.053,8.896-14.17,19.12-17.776,30.405
		c-3.173,9.936-4.144,20.347-3.354,31.029c1.824,24.661,11.274,46.448,23.653,67.302c1.808,3.04,3.494,6.17,5.52,9.056
		c4.352,6.182,5.333,13.231,4.368,20.293c-1.937,14.117-4.571,28.145-6.918,42.203c-1.082,6.496-2.128,12.997-3.237,19.488
		c-1.291,7.578,1.696,14.111,5.061,20.501c7.781,14.773,15.291,29.712,23.68,44.139c4.832,8.299,7.729,17.077,9.723,26.234
		c1.852,8.491,5.072,15.989,12.171,21.354c1.776,1.345,3.744,2.438,5.573,3.616c2.513-1.013,5.232-2.117,7.952-3.216
		c-0.08,0.347-0.154,0.688-0.234,1.035c4.336,0.933,8.672,1.861,13.567,2.911c0.006,0.027,0.16,1.051,0.454,3.014
		c1.493-1.957,2.527-3.307,3.595-4.698c5.584-0.268,11.53,2.096,17.269-2.454v6.192c0.288,0.085,0.582,0.171,0.875,0.256
		c2.875-4.64,5.744-9.28,8.838-14.271v10.811c5.359-3.478,6.666-13.989,1.285-19.547c-2.16-2.229-4.043-4.848-5.547-7.568
		c-3.354-6.069-7.974-10.752-14.149-13.829c-8.778-4.373-14.64-11.424-19.274-19.872c-8.513-15.52-14.987-31.738-17.69-49.301
		c-1.686-10.955,1.392-21.163,5.333-31.568c6,6.986,11.354,13.968,17.482,20.187c9.051,9.194,18.661,17.835,27.995,26.747
		c1.04,0.992,1.872,2.213,2.752,3.37c7.344,9.653,12.741,20.427,18.219,31.185c3.765,7.392,9.557,12.373,18.389,13.008
		c6.88,0.496,13.744,1.301,20.598,2.123c0.843,0.101,1.578,1.125,2.48,1.818c1.663-0.293,3.69-0.986,5.701-0.938
		c4.277,0.101,6.715-1.259,8.427-5.291c0.208-0.496,0.501-0.96,1.45-1.333v9.307c4.411-2.267,5.59-5.451,5.066-13.382
		c14.102,3.393,28.267,6.587,40.726,14.442c14.758,9.308,31.307,14.688,47.003,21.941c11.376,5.259,23.307,3.861,35.162,4.059
		c2.422,0.043,5.254,0.129,7.189,1.339c22.106,13.787,46.71,21.265,71.387,28.533c4.886,1.44,10.048,1.921,15.077,2.896
		c12.198,2.368,23.446,7.402,34.704,12.421c5.809,2.587,11.771,4.651,18.923,2.923c-0.778,4.448,1.968,6.581,4.672,8.4
		c4,2.688,7.904,5.616,13.152,5.797c6.288,0.214,12.57,0.838,18.843,1.376c0.8,0.069,1.557,0.699,2.698,1.243
		c0.715-1.062,1.563-2.336,2.448-3.659c6.357,0.187,12.896,0.912,19.205-2.042c0.075,0.565,0.187,1.429,0.192,1.461
		c7.354-2.693,14.72-5.392,22.485-8.234c0.607,2.122,1.077,3.775,1.552,5.429c0.314,0.006,0.63,0.006,0.944,0.011
		c0.282-2.282,0.549-4.576,0.863-6.854c0.331-2.384,0.71-4.768,1.062-7.146l1.046-0.154c0.863,3.231,1.728,6.458,2.843,10.607
		c0.778-2,1.663-3.466,1.888-5.023c0.73-5.066-0.213-9.952-3.909-13.573c-4.912-4.816-9.995-9.563-15.552-13.584
		c-4.075-2.949-8.827-5.313-13.627-6.827c-8.293-2.624-16.891-4.288-25.307-6.533c-8.112-2.16-16.145-4.603-24.24-6.811
		c-3.045-0.832-6.245-1.125-9.253-2.059c-2.992-0.928-6.24-1.808-8.662-3.648c-8.794-6.704-17.296-13.808-26.655-21.365
		c5.082,0,9.173,0.347,13.184-0.063c11.035-1.137,22.016-2.784,33.051-3.851c9.478-0.918,18.906-0.086,28.416,0.784
		c6.224,0.57,8.768,5.466,13.568,7.237c3.621,1.338,7.104,3.637,10.811,4.048c9.898,1.093,19.883,1.525,29.845,1.931
		c2.565,0.106,5.163-1.014,7.776-1.254c0.96-0.091,2.011,0.721,3.232,1.206c2.25-3.158,9.279-2.39,9.05-9.35
		c0.353,0.16,0.71,0.32,1.062,0.485c0.24,2.421,0.48,4.843,0.721,7.222c3.482-2.587,3.925-8.693,0.56-13.12
		c-8.048-10.582-17.328-19.712-30.117-24.496c-0.422-0.155-0.806-0.4-2.353-1.179c3.339-1.611,5.776-3.131,8.422-4
		c10.73-3.531,21.84-5.504,33.072-5.313c5.834,0.102,11.621,2.422,17.445,3.67c5.711,1.227,11.386,1.685,16.453-2.064
		c5.104-3.771,6.469-9.578,7.733-15.274c0.202-0.901-1.878-2.197-2.635-3.467c-0.528-0.886-1.077-2.192-0.806-3.051
		c1.387-4.362,3.045-8.64,4.598-12.949c0.08-0.224,0.011-0.528,0.139-0.709c4.858-6.96,1.482-14.673,1.866-22.017
		C1024.277,525.467,1023.072,523.35,1021.803,522.171z"/>
</g>
</svg>
